<?xml version="1.0" standalone="no"?>
<!DOCTYPE svg PUBLIC "-//W3C//DTD SVG 20010904//EN"
 "http://www.w3.org/TR/2001/REC-SVG-20010904/DTD/svg10.dtd">
<svg version="1.0" xmlns="http://www.w3.org/2000/svg"
 width="16.000000pt" height="16.000000pt" viewBox="0 0 16.000000 16.000000"
 preserveAspectRatio="xMidYMid meet">
<metadata>
Created by potrace 1.11, written by Peter Selinger 2001-2013
</metadata>
<g transform="translate(0.000000,16.000000) scale(0.006154,-0.006154)"
fill="#000000" stroke="none">
<path d="M1099 2495 c-254 -48 -476 -164 -653 -341 -350 -350 -451 -866 -262
-1330 142 -348 445 -607 834 -712 89 -23 113 -26 287 -26 174 0 198 3 287 26
458 124 772 438 896 896 23 89 26 113 26 287 0 174 -3 198 -26 287 -124 458
-442 776 -896 895 -123 32 -371 41 -493 18z m308 -425 c218 -28 411 -150 533
-337 87 -132 130 -279 130 -443 l0 -90 -656 0 -657 0 7 -56 c9 -75 48 -173
103 -256 156 -238 448 -315 710 -188 74 37 154 107 189 166 14 24 31 44 36 44
22 0 168 -43 168 -50 0 -21 -86 -134 -142 -186 -146 -136 -347 -205 -561 -191
-113 7 -191 27 -283 72 -338 165 -511 559 -414 940 78 307 333 534 642 574 88
12 113 12 195 1z"/>
<path d="M1240 1909 c-255 -29 -436 -220 -485 -511 l-6 -38 565 0 565 0 -6 38
c-46 328 -317 548 -633 511z"/>
</g>
</svg>
